<?xml version="1.0" encoding="utf-8"?>
<!-- Generator: Adobe Illustrator 27.5.0, SVG Export Plug-In . SVG Version: 6.00 Build 0)  -->
<svg version="1.1" xmlns="http://www.w3.org/2000/svg" xmlns:xlink="http://www.w3.org/1999/xlink" x="0px" y="0px"
	 viewBox="0 0 500 500" style="enable-background:new 0 0 500 500;" xml:space="preserve">
<g id="BACKGROUND">
	<rect y="0" style="fill:#FFFFFF;" width="500" height="500"/>
</g>
<g id="OBJECTS">
	<g>
		<defs>
			<circle id="SVGID_1_" cx="243.349" cy="248.236" r="195.092"/>
		</defs>
		<use xlink:href="#SVGID_1_"  style="overflow:visible;fill:#9DF4E8;"/>
		<clipPath id="SVGID_00000124859109921078100160000011056350317536945069_">
			<use xlink:href="#SVGID_1_"  style="overflow:visible;"/>
		</clipPath>
		<g style="clip-path:url(#SVGID_00000124859109921078100160000011056350317536945069_);">
			<g>
				<path style="fill:#FFFFFF;" d="M128.722,228.514l-4.464,17.548h-4.239l-2.375-9.214c-0.082-0.328-0.225-1.024-0.45-2.048
					c-0.205-1.024-0.328-1.72-0.369-2.068c-0.041,0.43-0.164,1.126-0.348,2.089c-0.205,0.942-0.348,1.638-0.45,2.048l-2.355,9.194
					h-4.239l-4.464-17.548h3.665l2.232,9.562c0.389,1.781,0.676,3.317,0.86,4.607c0.041-0.45,0.143-1.167,0.328-2.13
					c0.164-0.942,0.328-1.679,0.491-2.211l2.539-9.828h3.522l2.56,9.828c0.102,0.43,0.246,1.106,0.41,2.007
					c0.184,0.901,0.307,1.679,0.389,2.334c0.082-0.635,0.205-1.413,0.389-2.334c0.164-0.942,0.328-1.679,0.471-2.273l2.232-9.562
					H128.722z"/>
				<path style="fill:#FFFFFF;" d="M104.97,228.514l-4.464,17.548h-4.239l-2.375-9.214c-0.082-0.328-0.246-1.024-0.45-2.048
					s-0.328-1.72-0.369-2.068c-0.041,0.43-0.164,1.126-0.348,2.089c-0.205,0.942-0.348,1.638-0.45,2.048l-2.355,9.194h-4.239
					l-4.464-17.548h3.645l2.252,9.562c0.389,1.781,0.676,3.317,0.86,4.607c0.041-0.45,0.143-1.167,0.328-2.13
					c0.164-0.942,0.328-1.679,0.471-2.211l2.56-9.828h3.522l2.56,9.828c0.102,0.43,0.246,1.106,0.41,2.007
					c0.164,0.901,0.307,1.679,0.389,2.334c0.082-0.635,0.205-1.413,0.389-2.334c0.164-0.942,0.328-1.679,0.471-2.273l2.232-9.562
					H104.97z"/>
				<path style="fill:#FFFFFF;" d="M81.218,228.514l-4.464,17.548h-4.239l-2.375-9.214c-0.082-0.328-0.246-1.024-0.45-2.048
					c-0.205-1.024-0.328-1.72-0.369-2.068c-0.041,0.43-0.164,1.126-0.369,2.089c-0.184,0.942-0.328,1.638-0.43,2.048l-2.375,9.194
					h-4.218l-4.464-17.548h3.645l2.252,9.562c0.389,1.781,0.676,3.317,0.84,4.607c0.061-0.45,0.164-1.167,0.348-2.13
					c0.164-0.942,0.328-1.679,0.471-2.211l2.56-9.828h3.522l2.56,9.828c0.102,0.43,0.246,1.106,0.41,2.007
					c0.164,0.901,0.307,1.679,0.389,2.334c0.082-0.635,0.205-1.413,0.389-2.334c0.164-0.942,0.328-1.679,0.471-2.273l2.232-9.562
					H81.218z"/>
			</g>
		</g>
		<g style="clip-path:url(#SVGID_00000124859109921078100160000011056350317536945069_);">
			<g>
				<path style="fill:#FFFFFF;" d="M148.441,186.55v21.623h-4.264v-10.244c0-0.479,0-1.034,0.025-1.665
					c0-0.631,0.076-2.321,0.202-5.021h-0.151l-5.551,16.93h-4.214l-5.198-16.981h-0.126c0.177,3.457,0.278,5.753,0.278,6.913v10.067
					h-4.113V186.55h6.257l5.097,16.527h0.101l5.425-16.527H148.441z"/>
				<polygon style="fill:#FFFFFF;" points="123.637,204.388 123.637,208.173 110.29,208.173 110.29,186.55 114.857,186.55 
					114.857,204.388 				"/>
				<polygon style="fill:#FFFFFF;" points="88.885,186.55 88.885,208.173 84.318,208.173 84.318,198.837 75.764,198.837 
					75.764,208.173 71.172,208.173 71.172,186.55 75.764,186.55 75.764,195.027 84.318,195.027 84.318,186.55 				"/>
				<g>
					<path style="fill:#FFFFFF;" d="M101.908,208.326h-4.65v-18.06h-5.955v-3.87h16.56v3.87h-5.955V208.326z"/>
				</g>
			</g>
		</g>
		<g style="clip-path:url(#SVGID_00000124859109921078100160000011056350317536945069_);">
			<g>
				<path style="fill:#FFFFFF;" d="M399.555,147.86l-1.375,3.287c-1.072-0.443-1.958-0.746-2.634-0.909
					c-0.699-0.187-1.399-0.256-2.075-0.256c-0.793,0-1.399,0.186-1.842,0.559c-0.42,0.373-0.629,0.863-0.629,1.445
					c0,0.373,0.07,0.699,0.256,0.979c0.163,0.28,0.443,0.559,0.816,0.816c0.396,0.256,1.282,0.723,2.681,1.399
					c1.888,0.886,3.147,1.795,3.847,2.681c0.699,0.909,1.049,2.005,1.049,3.31c0,1.795-0.653,3.217-1.958,4.243
					c-1.306,1.049-3.101,1.562-5.409,1.562c-2.145,0-4.01-0.396-5.665-1.189v-3.94c1.352,0.606,2.494,1.026,3.427,1.259
					c0.933,0.256,1.795,0.373,2.564,0.373c0.933,0,1.632-0.163,2.145-0.536c0.49-0.35,0.723-0.886,0.723-1.585
					c0-0.373-0.093-0.723-0.326-1.026c-0.21-0.303-0.536-0.606-0.956-0.886s-1.282-0.746-2.588-1.352
					c-1.212-0.583-2.145-1.119-2.751-1.655c-0.606-0.536-1.096-1.142-1.445-1.842c-0.373-0.699-0.56-1.515-0.56-2.471
					c0-1.748,0.606-3.147,1.795-4.15c1.212-1.026,2.867-1.515,4.966-1.515c1.049,0,2.028,0.117,2.984,0.35
					C397.526,147.067,398.506,147.417,399.555,147.86z"/>
				<path style="fill:#FFFFFF;" d="M384.145,147.86l-1.375,3.287c-1.072-0.443-1.958-0.746-2.634-0.909
					c-0.699-0.187-1.399-0.256-2.075-0.256c-0.793,0-1.399,0.186-1.842,0.559c-0.42,0.373-0.629,0.863-0.629,1.445
					c0,0.373,0.07,0.699,0.256,0.979c0.163,0.28,0.443,0.559,0.816,0.816c0.373,0.256,1.282,0.723,2.681,1.399
					c1.888,0.886,3.147,1.795,3.847,2.681c0.699,0.909,1.049,2.005,1.049,3.31c0,1.795-0.653,3.217-1.958,4.243
					c-1.305,1.049-3.101,1.562-5.409,1.562c-2.145,0-4.01-0.396-5.665-1.189v-3.94c1.352,0.606,2.494,1.026,3.427,1.259
					c0.933,0.256,1.795,0.373,2.564,0.373c0.933,0,1.632-0.163,2.145-0.536c0.49-0.35,0.746-0.886,0.746-1.585
					c0-0.373-0.117-0.723-0.35-1.026c-0.21-0.303-0.536-0.606-0.956-0.886s-1.282-0.746-2.588-1.352
					c-1.212-0.583-2.121-1.119-2.751-1.655c-0.606-0.536-1.096-1.142-1.445-1.842c-0.373-0.699-0.559-1.515-0.559-2.471
					c0-0.863,0.14-1.655,0.443-2.355c0.303-0.699,0.769-1.305,1.352-1.795c1.212-1.026,2.867-1.515,4.966-1.515
					c1.049,0,2.028,0.117,2.984,0.35C382.117,147.067,383.096,147.417,384.145,147.86z"/>
				<path style="fill:#FFFFFF;" d="M368.945,147.86l-0.256,0.629l-1.119,2.821c-0.746-0.373-1.492-0.676-2.238-0.932
					c-0.769-0.28-1.515-0.396-2.238-0.396c-1.585,0-2.821,0.583-3.707,1.795c-0.863,1.189-1.305,2.867-1.305,5.012
					c0,4.453,1.678,6.667,5.012,6.667c1.399,0,3.101-0.35,5.105-1.049v3.38v0.163c-1.655,0.699-3.474,1.026-5.502,1.026
					c-2.891,0-5.129-0.886-6.667-2.634c-1.539-1.772-2.308-4.29-2.308-7.6c0-2.075,0.373-3.893,1.142-5.455
					c0.746-1.562,1.842-2.751,3.264-3.59c1.399-0.839,3.077-1.236,4.966-1.236C365.029,146.461,366.987,146.928,368.945,147.86z"/>
			</g>
		</g>
		<g style="clip-path:url(#SVGID_00000124859109921078100160000011056350317536945069_);">
			<polygon style="fill:#051E35;" points="410.008,291.816 413.108,314.576 399.308,314.576 230.318,314.576 314.338,314.526 
				145.338,314.526 131.538,314.526 134.638,291.766 252.768,291.766 291.878,291.816 			"/>
			<polygon style="fill:#A6B2B1;" points="410.008,175.976 391.938,262.266 379.678,263.726 379.718,263.616 358.138,266.286 
				346.638,267.656 342.048,263.616 387.088,257.896 404.618,170.846 			"/>
			<polygon style="fill:#EFEFEF;" points="404.618,170.846 387.088,257.896 342.048,263.616 345.918,257.876 345.918,257.896 
				383.848,253.366 398.508,179.906 			"/>
			<polygon style="fill:#EFEFEF;" points="404.618,170.846 398.508,179.906 399.308,175.886 358.138,183.796 345.918,257.876 
				342.048,263.616 356.078,180.916 			"/>
			<polygon style="fill:#00C4B7;" points="399.308,175.886 398.508,179.906 345.918,257.876 358.138,183.796 			"/>
			<polygon style="fill:#5AE0CF;" points="345.918,257.876 398.508,179.906 383.848,253.366 345.918,257.896 			"/>
			<path style="fill:#051E35;" d="M381.668,333.186c-0.88,26.16-1.76,52.31-2.64,78.47l-11.87,4.06
				c-1.42-27.25-2.9-55.69-4.32-82.94L381.668,333.186z"/>
			<polygon style="fill:#C6C6C6;" points="373.298,280.506 371.448,285.366 293.888,285.366 292.248,279.576 307.088,279.576 
				352.388,279.576 358.138,266.286 379.678,263.726 			"/>
			<polygon style="fill:#C6C6C6;" points="350.678,181.636 336.388,263.616 307.088,263.596 266.858,263.576 266.858,263.556 
				266.838,263.576 228.148,263.556 229.018,257.116 333.158,257.896 345.918,186.696 238.498,186.696 229.018,257.116 
				226.028,257.096 235.908,181.636 			"/>
			<polygon style="fill:#B9EFE8;" points="345.92,186.698 333.16,257.898 229.02,257.118 238.5,186.698 			"/>
			<path style="fill:#051E35;" d="M313.118,332.776h19.73c-1.53,34.82-3.69,69.61-6.48,104.35l-12.14-0.4
				C315.098,402.086,314.718,367.396,313.118,332.776z"/>
			<rect x="280.44" y="221.491" style="fill:#7B57C1;" width="50.29" height="5.025"/>
			<rect x="280.44" y="212.614" style="fill:#7B57C1;" width="49.747" height="4.73"/>
			<rect x="302.297" y="245.303" style="fill:#7B57C1;" width="27.648" height="5.372"/>
			<polygon style="fill:#C6C6C6;" points="307.088,263.616 307.088,279.576 292.248,279.576 293.888,285.366 250.758,285.316 
				252.388,279.576 252.398,279.576 266.858,279.576 266.858,263.576 307.088,263.596 			"/>
			<rect x="270.165" y="245.303" style="fill:#7B57C1;" width="27.246" height="5.372"/>
			<polygon style="fill:#C6C6C6;" points="186.348,280.456 179.968,263.666 201.338,266.216 201.508,266.236 207.258,279.526 
				252.398,279.526 252.388,279.576 250.758,285.316 188.198,285.316 			"/>
			<path d="M399.31,314.578l-7.23,18.2h-78.96v-0.05h-81.59c0-0.08,0.01-0.15,0.01-0.23l-2.19,0.23h-76.77l-7.24-18.2h169
				l-84.02,0.05H399.31z"/>
			<path style="fill:#051E35;" d="M228.878,332.776h2.65c-1.6,34.6-1.98,69.27-1.1,103.9l-12.15,0.4
				c-2.79-34.74-4.94-69.53-6.48-104.35h17.55L228.878,332.776z"/>
			<polygon style="fill:#EFEFEF;" points="229.018,257.116 228.148,263.556 226.678,263.556 225.318,262.496 226.028,257.096 			"/>
			<polygon style="fill:#EFEFEF;" points="225.318,262.496 226.678,263.556 225.178,263.556 			"/>
			<polygon style="fill:#EFEFEF;" points="216.538,257.326 217.598,263.556 213.728,257.816 201.508,183.736 160.338,175.826 
				161.138,179.846 155.038,170.796 203.578,180.866 			"/>
			<polygon style="fill:#EFEFEF;" points="213.728,257.816 217.598,263.556 172.558,257.836 155.038,170.796 161.138,179.846 
				175.798,253.316 213.728,257.836 			"/>
			<polygon style="fill:#A6B2B1;" points="217.598,263.556 213.008,267.606 201.508,266.236 201.338,266.216 179.928,263.556 
				179.968,263.666 167.708,262.206 149.638,175.916 155.038,170.796 172.558,257.836 			"/>
			<polygon style="fill:#00C4B7;" points="213.728,257.816 161.138,179.846 160.338,175.826 201.508,183.736 			"/>
			<polygon style="fill:#5AE0CF;" points="161.138,179.846 213.728,257.816 213.728,257.836 175.798,253.316 			"/>
			<polygon style="fill:#0C2E47;" points="410.01,291.818 291.88,291.818 252.77,291.768 134.64,291.768 163.32,280.458 
				186.35,280.458 188.2,285.318 250.76,285.318 293.89,285.368 371.45,285.368 373.3,280.508 381.34,280.508 			"/>
			<path style="fill:#051E35;" d="M162.988,333.136l18.83-0.41c-1.43,27.25-2.91,55.69-4.33,82.93l-11.87-4.06
				C164.738,385.446,163.858,359.286,162.988,333.136z"/>
		</g>
	</g>
	<g>
		<g>
			<rect x="374.269" y="212.101" style="fill:#7B57C1;" width="55.671" height="11.058"/>
			<rect x="374.269" y="223.159" style="fill:#8C6FD1;" width="55.671" height="11.058"/>
			<rect x="374.269" y="234.217" style="fill:#7B57C1;" width="55.671" height="11.058"/>
			<path d="M415.945,215.428h-48.469c-0.252,0-0.457-0.206-0.457-0.457l0,0c0-0.252,0.206-0.457,0.457-0.457h48.469
				c0.252,0,0.457,0.206,0.457,0.457l0,0C416.403,215.222,416.197,215.428,415.945,215.428z"/>
			<path d="M415.945,218.087h-48.469c-0.252,0-0.457-0.206-0.457-0.457v0c0-0.252,0.206-0.457,0.457-0.457h48.469
				c0.252,0,0.457,0.206,0.457,0.457v0C416.403,217.882,416.197,218.087,415.945,218.087z"/>
			<path d="M406.57,220.425h-39.094c-0.252,0-0.457-0.206-0.457-0.457l0,0c0-0.252,0.206-0.457,0.457-0.457h39.094
				c0.252,0,0.457,0.206,0.457,0.457l0,0C407.027,220.219,406.821,220.425,406.57,220.425z"/>
			<path d="M415.945,226.647h-48.469c-0.252,0-0.457-0.206-0.457-0.457l0,0c0-0.252,0.206-0.457,0.457-0.457h48.469
				c0.252,0,0.457,0.206,0.457,0.457l0,0C416.403,226.441,416.197,226.647,415.945,226.647z"/>
			<path d="M415.945,229.307h-48.469c-0.252,0-0.457-0.206-0.457-0.457l0,0c0-0.252,0.206-0.457,0.457-0.457h48.469
				c0.252,0,0.457,0.206,0.457,0.457l0,0C416.403,229.101,416.197,229.307,415.945,229.307z"/>
			<path d="M406.57,231.644h-39.094c-0.252,0-0.457-0.206-0.457-0.457l0,0c0-0.252,0.206-0.457,0.457-0.457h39.094
				c0.252,0,0.457,0.206,0.457,0.457l0,0C407.027,231.439,406.821,231.644,406.57,231.644z"/>
			<path d="M415.945,237.288h-48.469c-0.252,0-0.457-0.206-0.457-0.457l0,0c0-0.252,0.206-0.457,0.457-0.457h48.469
				c0.252,0,0.457,0.206,0.457,0.457l0,0C416.403,237.082,416.197,237.288,415.945,237.288z"/>
			<path d="M415.945,239.948h-48.469c-0.252,0-0.457-0.206-0.457-0.457l0,0c0-0.252,0.206-0.457,0.457-0.457h48.469
				c0.252,0,0.457,0.206,0.457,0.457l0,0C416.403,239.742,416.197,239.948,415.945,239.948z"/>
			<path d="M406.57,242.285h-39.094c-0.252,0-0.457-0.206-0.457-0.457l0,0c0-0.252,0.206-0.457,0.457-0.457h39.094
				c0.252,0,0.457,0.206,0.457,0.457l0,0C407.027,242.079,406.821,242.285,406.57,242.285z"/>
		</g>
		<g>
			<path style="fill:#00C4B7;" d="M279.982,145.007v9.374h-1.98v-5.426l0.022-0.897l0.033-0.974
				c-0.328,0.328-0.558,0.547-0.689,0.656l-1.072,0.864l-0.963-1.192l3.019-2.406H279.982z"/>
			<path style="fill:#00C4B7;" d="M272.489,145.007v9.374h-1.98v-5.426l0.022-0.897l0.033-0.974
				c-0.328,0.328-0.558,0.547-0.689,0.656l-1.072,0.864l-0.963-1.192l3.019-2.406H272.489z"/>
			<path style="fill:#00C4B7;" d="M259.112,149.688c0,1.641-0.273,2.855-0.809,3.632c-0.536,0.788-1.356,1.181-2.472,1.181
				c-1.083,0-1.903-0.405-2.45-1.214c-0.547-0.809-0.82-2.013-0.82-3.599c0-1.652,0.263-2.866,0.799-3.653
				c0.536-0.788,1.356-1.181,2.472-1.181c1.083,0,1.892,0.416,2.45,1.236C258.827,146.91,259.112,148.113,259.112,149.688z
				 M257.132,149.688c0-1.149-0.098-1.969-0.306-2.472c-0.208-0.503-0.547-0.755-0.995-0.755c-0.47,0-0.799,0.252-1.006,0.755
				c-0.197,0.503-0.295,1.324-0.295,2.472c0,1.149,0.098,1.98,0.295,2.472c0.197,0.503,0.536,0.744,1.006,0.744
				c0.459,0,0.788-0.252,0.995-0.755C257.033,151.646,257.132,150.826,257.132,149.688z"/>
			<path style="fill:#00C4B7;" d="M250.011,145.007v9.374h-1.98v-5.426l0.022-0.897l0.033-0.974
				c-0.328,0.328-0.558,0.547-0.689,0.656l-1.072,0.864l-0.963-1.192l3.019-2.406H250.011z"/>
			<path style="fill:#00C4B7;" d="M266.604,149.688c0,1.641-0.273,2.855-0.809,3.632c-0.536,0.788-1.356,1.181-2.472,1.181
				c-1.083,0-1.903-0.405-2.45-1.214c-0.547-0.809-0.82-2.013-0.82-3.599c0-1.652,0.263-2.866,0.799-3.653
				c0.536-0.788,1.356-1.181,2.472-1.181c1.072,0,1.892,0.416,2.45,1.236C266.32,146.91,266.604,148.113,266.604,149.688z
				 M264.625,149.688c0-1.149-0.098-1.969-0.306-2.472c-0.208-0.503-0.547-0.755-0.995-0.755c-0.47,0-0.799,0.252-1.006,0.755
				c-0.197,0.503-0.295,1.324-0.295,2.472c0,1.149,0.098,1.98,0.295,2.472c0.197,0.503,0.536,0.744,1.006,0.744
				c0.459,0,0.788-0.252,0.995-0.755C264.526,151.646,264.625,150.826,264.625,149.688z"/>
			<path style="fill:#00C4B7;" d="M281.59,133.937c0,1.641-0.273,2.855-0.809,3.632c-0.536,0.788-1.356,1.181-2.472,1.181
				c-1.083,0-1.903-0.405-2.45-1.214c-0.547-0.809-0.82-2.013-0.82-3.599c0-1.652,0.263-2.866,0.798-3.653
				c0.536-0.788,1.356-1.181,2.472-1.181c1.072,0,1.892,0.416,2.45,1.236C281.306,131.158,281.59,132.362,281.59,133.937z
				 M279.61,133.937c0-1.149-0.098-1.969-0.306-2.472c-0.208-0.503-0.547-0.755-0.995-0.755c-0.47,0-0.799,0.252-1.006,0.755
				c-0.197,0.503-0.295,1.324-0.295,2.472s0.098,1.98,0.295,2.472c0.197,0.503,0.536,0.744,1.006,0.744
				c0.459,0,0.788-0.252,0.995-0.755C279.512,135.895,279.61,135.074,279.61,133.937z"/>
			<path style="fill:#00C4B7;" d="M274.097,133.937c0,1.641-0.273,2.855-0.809,3.632c-0.536,0.788-1.356,1.181-2.472,1.181
				c-1.083,0-1.903-0.405-2.45-1.214c-0.547-0.809-0.82-2.013-0.82-3.599c0-1.652,0.263-2.866,0.799-3.653
				c0.536-0.788,1.356-1.181,2.472-1.181c1.072,0,1.892,0.416,2.45,1.236C273.813,131.158,274.097,132.362,274.097,133.937z
				 M272.117,133.937c0-1.149-0.098-1.969-0.306-2.472c-0.208-0.503-0.547-0.755-0.995-0.755c-0.47,0-0.799,0.252-1.006,0.755
				c-0.197,0.503-0.295,1.324-0.295,2.472s0.098,1.98,0.295,2.472c0.197,0.503,0.536,0.744,1.006,0.744
				c0.459,0,0.788-0.252,0.995-0.755C272.019,135.895,272.117,135.074,272.117,133.937z"/>
			<path style="fill:#00C4B7;" d="M257.504,129.255v9.374h-1.98v-5.426l0.022-0.897l0.033-0.974
				c-0.328,0.328-0.558,0.547-0.689,0.656l-1.072,0.864l-0.963-1.192l3.019-2.406H257.504z"/>
			<path style="fill:#00C4B7;" d="M250.011,129.255v9.374h-1.98v-5.426l0.022-0.897l0.033-0.974
				c-0.328,0.328-0.558,0.547-0.689,0.656l-1.072,0.864l-0.963-1.192l3.019-2.406H250.011z"/>
			<path style="fill:#00C4B7;" d="M264.996,129.255v9.374h-1.98v-5.426l0.022-0.897l0.033-0.974
				c-0.328,0.328-0.558,0.547-0.689,0.656l-1.072,0.864l-0.963-1.192l3.019-2.406H264.996z"/>
			<path style="fill:#00C4B7;" d="M281.59,118.185c0,1.641-0.273,2.855-0.809,3.632c-0.536,0.788-1.356,1.181-2.472,1.181
				c-1.083,0-1.903-0.405-2.45-1.214c-0.547-0.809-0.82-2.013-0.82-3.599c0-1.652,0.263-2.866,0.798-3.653
				c0.536-0.788,1.356-1.181,2.472-1.181c1.072,0,1.892,0.416,2.45,1.236C281.306,115.407,281.59,116.61,281.59,118.185z
				 M279.61,118.185c0-1.149-0.098-1.969-0.306-2.472c-0.208-0.503-0.547-0.755-0.995-0.755c-0.47,0-0.799,0.252-1.006,0.755
				c-0.197,0.503-0.295,1.324-0.295,2.472c0,1.149,0.098,1.98,0.295,2.472c0.197,0.503,0.536,0.744,1.006,0.744
				c0.459,0,0.788-0.252,0.995-0.755C279.512,120.143,279.61,119.323,279.61,118.185z"/>
			<path style="fill:#00C4B7;" d="M279.982,97.752v9.374h-1.98v-5.426l0.022-0.897l0.033-0.974
				c-0.328,0.328-0.558,0.547-0.689,0.656l-1.072,0.864l-0.963-1.192l3.019-2.406H279.982z"/>
			<path style="fill:#00C4B7;" d="M274.097,102.434c0,1.641-0.273,2.855-0.809,3.632c-0.536,0.788-1.356,1.181-2.472,1.181
				c-1.083,0-1.903-0.405-2.45-1.214c-0.547-0.809-0.82-2.013-0.82-3.599c0-1.652,0.263-2.866,0.799-3.653
				c0.536-0.788,1.356-1.181,2.472-1.181c1.072,0,1.892,0.416,2.45,1.236C273.813,99.655,274.097,100.858,274.097,102.434z
				 M272.117,102.434c0-1.149-0.098-1.969-0.306-2.472c-0.208-0.503-0.547-0.755-0.995-0.755c-0.47,0-0.799,0.252-1.006,0.755
				c-0.197,0.503-0.295,1.324-0.295,2.472c0,1.149,0.098,1.98,0.295,2.472c0.197,0.503,0.536,0.744,1.006,0.744
				c0.459,0,0.788-0.252,0.995-0.755C272.019,104.392,272.117,103.571,272.117,102.434z"/>
			<path style="fill:#00C4B7;" d="M274.097,118.185c0,1.641-0.273,2.855-0.809,3.632c-0.536,0.788-1.356,1.181-2.472,1.181
				c-1.083,0-1.903-0.405-2.45-1.214c-0.547-0.809-0.82-2.013-0.82-3.599c0-1.652,0.263-2.866,0.799-3.653
				c0.536-0.788,1.356-1.181,2.472-1.181c1.072,0,1.892,0.416,2.45,1.236C273.813,115.407,274.097,116.61,274.097,118.185z
				 M272.117,118.185c0-1.149-0.098-1.969-0.306-2.472c-0.208-0.503-0.547-0.755-0.995-0.755c-0.47,0-0.799,0.252-1.006,0.755
				c-0.197,0.503-0.295,1.324-0.295,2.472c0,1.149,0.098,1.98,0.295,2.472c0.197,0.503,0.536,0.744,1.006,0.744
				c0.459,0,0.788-0.252,0.995-0.755C272.019,120.143,272.117,119.323,272.117,118.185z"/>
			<path style="fill:#00C4B7;" d="M266.604,102.434c0,1.641-0.273,2.855-0.809,3.632c-0.536,0.788-1.356,1.181-2.472,1.181
				c-1.083,0-1.903-0.405-2.45-1.214c-0.547-0.809-0.82-2.013-0.82-3.599c0-1.652,0.263-2.866,0.799-3.653
				c0.536-0.788,1.356-1.181,2.472-1.181c1.072,0,1.892,0.416,2.45,1.236C266.32,99.655,266.604,100.858,266.604,102.434z
				 M264.625,102.434c0-1.149-0.098-1.969-0.306-2.472c-0.208-0.503-0.547-0.755-0.995-0.755c-0.47,0-0.799,0.252-1.006,0.755
				c-0.197,0.503-0.295,1.324-0.295,2.472c0,1.149,0.098,1.98,0.295,2.472c0.197,0.503,0.536,0.744,1.006,0.744
				c0.459,0,0.788-0.252,0.995-0.755C264.526,104.392,264.625,103.571,264.625,102.434z"/>
			<path style="fill:#00C4B7;" d="M264.996,113.503v9.374h-1.98v-5.426l0.022-0.897l0.033-0.974
				c-0.328,0.328-0.558,0.547-0.689,0.656l-1.072,0.864l-0.963-1.192l3.019-2.406H264.996z"/>
			<path style="fill:#00C4B7;" d="M259.112,118.185c0,1.641-0.273,2.855-0.809,3.632c-0.536,0.788-1.356,1.181-2.472,1.181
				c-1.083,0-1.903-0.405-2.45-1.214c-0.547-0.809-0.82-2.013-0.82-3.599c0-1.652,0.263-2.866,0.799-3.653
				c0.536-0.788,1.356-1.181,2.472-1.181c1.083,0,1.892,0.416,2.45,1.236C258.827,115.407,259.112,116.61,259.112,118.185z
				 M257.132,118.185c0-1.149-0.098-1.969-0.306-2.472c-0.208-0.503-0.547-0.755-0.995-0.755c-0.47,0-0.799,0.252-1.006,0.755
				c-0.197,0.503-0.295,1.324-0.295,2.472c0,1.149,0.098,1.98,0.295,2.472c0.197,0.503,0.536,0.744,1.006,0.744
				c0.459,0,0.788-0.252,0.995-0.755C257.033,120.143,257.132,119.323,257.132,118.185z"/>
			<path style="fill:#00C4B7;" d="M257.504,97.752v9.374h-1.98v-5.426l0.022-0.897l0.033-0.974
				c-0.328,0.328-0.558,0.547-0.689,0.656l-1.072,0.864l-0.963-1.192l3.019-2.406H257.504z"/>
			<path style="fill:#00C4B7;" d="M251.619,102.434c0,1.641-0.273,2.855-0.809,3.632c-0.536,0.788-1.356,1.181-2.472,1.181
				c-1.083,0-1.903-0.405-2.45-1.214c-0.547-0.809-0.82-2.013-0.82-3.599c0-1.652,0.263-2.866,0.799-3.653
				c0.536-0.788,1.356-1.181,2.472-1.181c1.083,0,1.892,0.416,2.45,1.236C251.334,99.655,251.619,100.858,251.619,102.434z
				 M249.639,102.434c0-1.149-0.098-1.969-0.306-2.472c-0.208-0.503-0.536-0.755-0.995-0.755c-0.47,0-0.799,0.252-1.006,0.755
				c-0.197,0.503-0.295,1.324-0.295,2.472c0,1.149,0.098,1.98,0.295,2.472c0.197,0.503,0.536,0.744,1.006,0.744
				c0.459,0,0.788-0.252,0.995-0.755C249.54,104.392,249.639,103.571,249.639,102.434z"/>
			<path style="fill:#00C4B7;" d="M251.619,118.185c0,1.641-0.273,2.855-0.809,3.632c-0.536,0.788-1.356,1.181-2.472,1.181
				c-1.083,0-1.903-0.405-2.45-1.214c-0.547-0.809-0.82-2.013-0.82-3.599c0-1.652,0.263-2.866,0.799-3.653
				c0.536-0.788,1.356-1.181,2.472-1.181c1.083,0,1.892,0.416,2.45,1.236C251.334,115.407,251.619,116.61,251.619,118.185z
				 M249.639,118.185c0-1.149-0.098-1.969-0.306-2.472c-0.208-0.503-0.536-0.755-0.995-0.755c-0.47,0-0.799,0.252-1.006,0.755
				c-0.197,0.503-0.295,1.324-0.295,2.472c0,1.149,0.098,1.98,0.295,2.472c0.197,0.503,0.536,0.744,1.006,0.744
				c0.459,0,0.788-0.252,0.995-0.755C249.54,120.143,249.639,119.323,249.639,118.185z"/>
		</g>
		<g>
			<rect x="288.416" y="135.81" style="fill:#FFFFFF;" width="69.57" height="38.02"/>
			<path style="fill:#00C4B7;" d="M360.285,128.798v47.86h-74.3v-47.86H360.285z M357.985,173.828v-3.71v-29.96v-4.35h-69.57v4.36
				v30.29v3.37H357.985z"/>
			<polygon style="fill:#051E35;" points="355.105,138.488 356.025,140.158 325.395,155.198 356.025,170.118 355.105,171.788 
				323.225,156.268 290.915,172.128 289.995,170.458 321.055,155.198 290.175,140.168 291.095,138.488 323.225,154.138 			"/>
		</g>
		<g>
			<path style="fill:#00C4B7;" d="M330.743,160.197v47.86h-74.29v-47.86H330.743z M328.453,205.227v-38.02h-69.57v38.02H328.453z"/>
			<path style="fill:#FFFFFF;" d="M258.885,167.21v38.02h69.57v-38.02H258.885z M324.545,202.13h-38.56v-11.86h38.56V202.13z"/>
			<rect x="285.983" y="190.267" style="fill:#7B57C1;" width="38.56" height="11.86"/>
			<rect x="285.983" y="170.577" style="fill:#7B57C1;" width="38.56" height="16.66"/>
			<rect x="262.113" y="170.577" style="fill:#7B57C1;" width="20.63" height="31.55"/>
		</g>
	</g>
	<g>
		<g>
			<path style="fill:#423F51;" d="M206.74,416.908v8.54h-0.29h-12.83h-19.14h-12.1c-2.56-1.16-5.09-2.38-7.59-3.64v-4.9H206.74z"/>
			<path style="fill:#423F51;" d="M193.62,425.448v11.08c-6.52-1.7-12.91-3.73-19.14-6.07v-5.01H193.62z"/>
			<path style="fill:#423F51;" d="M162.38,425.448h-7.59v-3.64C157.29,423.068,159.82,424.288,162.38,425.448z"/>
			<path d="M214.79,406.118v10.79h-8.05h-51.95h-9.04c-1.59-0.91-3.16-1.85-4.72-2.81v-7.98h57.26H214.79z"/>
			<path style="fill:#4E3696;" d="M250.86,406.118h-36.07h-16.5v-0.03c-23.77-4.63-45.7-18.18-60.49-37.37
				c-4.38-5.68-8.16-11.86-10.76-18.55c-4.74-12.18-5.38-25.77-2.77-38.57c2.46-12.09,7.75-23.49,14.69-33.7
				c1.5,0.26,2.97,0.63,4.39,1.19c4.61,1.82,8.3,5.4,11.55,9.14c7.1,8.19,12.77,17.63,16.65,27.75
				c4.93,12.83,6.97,26.58,11.18,39.66c2.63,8.18,6.34,16.32,11.63,23.01c3.17,4.01,6.9,7.5,11.32,10.16
				c12.04,7.25,26.93,7.15,40.98,7.25c3.36,0.03,6.89,0.13,9.77,1.86c2.75,1.67,4.53,5.38,3.12,8.2H250.86z"/>
			<path style="fill:#7B57C1;" d="M198.29,406.088v0.03h-92.88c-4.76-1.1-8.99-5.05-11.06-9.66c-2.78-6.15-2.66-13.16-2.56-19.91
				c0.03-1.81,0.05-3.61,0.06-5.42c0.21-25.63-0.71-51.27-2.75-76.82c-0.35-4.41-0.51-9.46,2.68-12.53
				c2.21-2.14,5.47-2.69,8.53-3.07c10.02-1.26,20.15-1.74,30.25-1.45c0.5,0.01,1,0.02,1.5,0.04c2.3,0.08,4.63,0.2,6.9,0.6
				c-6.94,10.21-12.23,21.61-14.69,33.7c-2.61,12.8-1.97,26.39,2.77,38.57c2.6,6.69,6.38,12.87,10.76,18.55
				C152.59,387.908,174.52,401.458,198.29,406.088z"/>
		</g>
		<g>
			<path style="fill:#051E35;" d="M250.86,406.118c-1.45,11.46-2.9,22.92-4.35,34.39l0.04,2.27c-1.19,0.03-2.39,0.04-3.59,0.04
				c-12.61,0-24.94-1.2-36.88-3.48c0.12-4.63,0.25-9.26,0.37-13.89h0.29v-8.54h8.05v-10.79H250.86z"/>
			<path style="fill:#0C2E47;" d="M232.45,355.208c20.92,4.12,41.84,8.25,62.76,12.37c5.55,1.1,11.55,2.45,15.18,6.79
				c2.61,3.13,3.53,7.32,4.07,11.36c0.96,7.29,0.93,14.68,0.9,22.04c-0.03,7.07-0.05,14.14-0.08,21.2
				c-10.26,4.1-20.94,7.35-31.97,9.67c0.43-15.51-0.32-31.05-2.25-46.45c-0.43-3.48-1.03-7.18-3.4-9.77
				c-2.44-2.66-6.22-3.54-9.79-4.07c-19.63-2.91-40.01,0.99-59.27-3.66c9.32-4.26,17.62-11.34,23.61-19.53
				C232.29,355.178,232.37,355.188,232.45,355.208z"/>
			<path style="fill:#051E35;" d="M259.55,406.118c1.41-2.82-0.37-6.53-3.12-8.2c-2.88-1.73-6.41-1.83-9.77-1.86
				c-14.05-0.1-28.94,0-40.98-7.25c-4.42-2.66-8.15-6.15-11.32-10.16l0.91-0.03c4.58-0.61,9.06-1.97,13.33-3.93
				c19.26,4.65,39.64,0.75,59.27,3.66c3.57,0.53,7.35,1.41,9.79,4.07c2.37,2.59,2.97,6.29,3.4,9.77c1.93,15.4,2.68,30.94,2.25,46.45
				c-6.92,1.46-13.97,2.55-21.14,3.24l-0.02-0.16c-0.63-11.86-1.26-23.74-1.89-35.6H259.55z"/>
		</g>
		<g>
			<path style="fill:#051E35;" d="M226.59,159.898c2.4-1.48,3.87-4.34,3.67-7.15l0.01-0.02c0.29,0.1,0.59,0.17,0.91,0.21
				c0.58,0.08,1.18,0.05,1.73,0.23c1.14,0.38,1.81,1.62,1.86,2.82c0.06,1.2-0.38,2.36-0.85,3.45c-1.4,3.21-3.32,6.39-6.35,8.12
				c-0.01,0.01-0.02,0.01-0.03,0.02c-0.94,0.54-1.98,0.93-2.87,1.54c-2.57,1.77-3.53,5.02-4.45,7.99c-0.16,0.5-0.31,1-0.48,1.49
				c-0.62,0.49-1.37,0.83-2.12,1.04c-1.73,0.47-3.58,0.41-5.32,0.87c-4.02,1.08-6.75,4.72-10.29,6.93c-2.87,1.79-6.33,2.57-9.7,2.28
				c-1.38-0.12-2.74-0.42-4.03-0.9c-4.47-1.67-8.07-5.49-9.47-10.05l-0.67,0.09c-0.76-5.51-1.52-11.01-2.27-16.52l0.09-0.01
				c0.73,5.17,3.91,9.96,8.24,12.95c5.09,3.53,11.56,4.73,17.71,4.11c1.98-0.21,3.98-0.6,5.69-1.62c2.72-1.64,4.32-4.66,5.25-7.7
				c0.39-1.29,0.69-2.62,1.37-3.79c1.57-2.67,4.75-3.88,7.75-4.7C223.56,161.148,225.19,160.758,226.59,159.898z"/>
			<path style="fill:#042951;" d="M188.28,188.818c1.29,0.48,2.65,0.78,4.03,0.9l-0.08,0.97c-0.61-0.05-1.23-0.06-1.85-0.04
				c-1.43,0.05-3.19,0.59-5.03,1.45h-0.01c-1.68-0.24-4.65-2.65-5.41-4.17c-0.75-1.52-0.99-3.24-1.22-4.92
				c-0.19-1.38-0.38-2.77-0.57-4.15l0.67-0.09C180.21,183.328,183.81,187.148,188.28,188.818z"/>
			<path style="fill:#042951;" d="M192.31,189.718c3.37,0.29,6.83-0.49,9.7-2.28c3.54-2.21,6.27-5.85,10.29-6.93
				c1.74-0.46,3.59-0.4,5.32-0.87c0.75-0.21,1.5-0.55,2.12-1.04c-1.25,3.81-2.83,7.56-5.43,10.58c-2.88,3.37-7.25,5.75-11.64,5.26
				c-3.13-2.07-6.73-3.48-10.44-3.75L192.31,189.718z"/>
			<path style="fill:#042951;" d="M225.77,148.328c1.06,1.86,2.53,3.73,4.5,4.4l-0.01,0.02c0.2,2.81-1.27,5.67-3.67,7.15
				c-1.4,0.86-3.03,1.25-4.62,1.68c-3,0.82-6.18,2.03-7.75,4.7c-0.68,1.17-0.98,2.5-1.37,3.79c-0.93,3.04-2.53,6.06-5.25,7.7
				c-1.71,1.02-3.71,1.41-5.69,1.62c-6.15,0.62-12.62-0.58-17.71-4.11c-4.33-2.99-7.51-7.78-8.24-12.95l-0.09,0.01
				c-0.01-0.05-0.01-0.1-0.02-0.15c-0.46-3.31-0.9-6.78,0.25-9.92c0.46-1.26,1.13-2.38,1.96-3.4l-0.17-0.14
				c1.66-2.07,3.35-4.12,5.59-5.5c4.86-2.98,11.02-2.1,16.71-1.8c3.69,0.2,7.39,0.12,11.07-0.25c3.51-0.35,7.41-0.87,10.27,1.2
				C223.53,143.808,224.56,146.188,225.77,148.328z"/>
			<path style="fill:#FFD9B3;" d="M227.54,167.578c0.01-0.01,0.02-0.01,0.03-0.02l0.06,0.1c-0.13,9.67-1.85,19.32-5.08,28.44
				c-1.56,4.42-3.94,9.16-8.32,10.73c-0.07-0.01-0.14-0.03-0.21-0.05c-2.65-4.08-5.66-7.97-9.47-10.98
				c-0.6-0.48-1.23-0.93-1.88-1.36c4.39,0.49,8.76-1.89,11.64-5.26c2.6-3.02,4.18-6.77,5.43-10.58c0.17-0.49,0.32-0.99,0.48-1.49
				c0.92-2.97,1.88-6.22,4.45-7.99C225.56,168.508,226.6,168.118,227.54,167.578z"/>
		</g>
		<g>
			<path style="fill:#02AF9E;" d="M202.67,194.438c0.65,0.43,1.28,0.88,1.88,1.36c3.81,3.01,6.82,6.9,9.47,10.98
				c-10.1-2.36-20.3-4.25-30.57-5.67c-2.86-0.4-5.75-0.76-8.64-0.91c2.27-2.95,6.58-6.25,10.53-8.1h0.01
				c1.84-0.86,3.6-1.4,5.03-1.45c0.62-0.02,1.24-0.01,1.85,0.04C195.94,190.958,199.54,192.368,202.67,194.438z"/>
			<path style="fill:#02AF9E;" d="M232.21,355.158c-5.99,8.19-14.29,15.27-23.61,19.53c-0.22-0.04-0.43-0.1-0.65-0.15l-0.17-0.19
				c-10.98-36.75-9.47-77.11,4.24-112.94c0.78-2.06,1.96-4.4,4.14-4.76c1.48-0.25,2.92,0.55,4.22,1.32
				c6.63,3.92,13.27,7.83,19.9,11.76c-4.65,28.13-7.28,56.6-7.83,85.11C232.38,354.948,232.3,355.048,232.21,355.158z"/>
			<path style="fill:#00C4B7;" d="M138.96,277.898c-2.27-0.4-4.6-0.52-6.9-0.6c-0.5-0.02-1-0.03-1.5-0.04l0.03-1.04
				c1.07-9.73,1.2-19.56,2.33-29.29c1.13-9.73,3.34-19.51,8.24-27.99c4.9-8.48,12.78-15.58,22.3-17.89
				c3.71-0.9,7.53-1.05,11.34-0.85c0.01,0,0.01,0,0.01,0c2.89,0.15,5.78,0.51,8.64,0.91c10.27,1.42,20.47,3.31,30.57,5.67
				c0.02,0.03,0.04,0.07,0.07,0.11c0.05-0.01,0.1-0.03,0.14-0.06c4.04,0.95,8.07,1.98,12.07,3.08
				c23.32,17.16,47.35,36.89,66.96,58.19c1.77,1.92,3.56,3.92,4.47,6.37c1.88,5.08-0.71,11.11-5.17,14.18
				c-4.47,3.06-10.34,3.52-15.62,2.33c-5.29-1.19-10.11-3.86-14.75-6.66c-7.57-4.58-14.86-9.59-21.85-15.01
				c-0.02,0.14-0.04,0.28-0.06,0.42c-6.63-3.93-13.27-7.84-19.9-11.76c-1.3-0.77-2.74-1.57-4.22-1.32c-2.18,0.36-3.36,2.7-4.14,4.76
				c-13.71,35.83-15.22,76.19-4.24,112.94l0.17,0.19c0.22,0.05,0.43,0.11,0.65,0.15c-4.27,1.96-8.75,3.32-13.33,3.93l-0.91,0.03
				c-5.29-6.69-9-14.83-11.63-23.01c-4.21-13.08-6.25-26.83-11.18-39.66c-3.88-10.12-9.55-19.56-16.65-27.75
				c-3.25-3.74-6.94-7.32-11.55-9.14C141.93,278.528,140.46,278.158,138.96,277.898z"/>
			<g style="opacity:0.33;">
				<defs>
					<path id="SVGID_00000028309593464587635430000017178008749255337876_" style="opacity:0.33;" d="M292.56,288.648
						c-4.47,3.06-10.34,3.52-15.62,2.33c-5.29-1.19-10.11-3.86-14.75-6.66c-7.57-4.58-14.86-9.59-21.85-15.01
						c-0.02,0.14-0.04,0.28-0.06,0.42c-4.65,28.13-7.28,56.6-7.83,85.11c-0.07,0.11-0.15,0.21-0.24,0.32
						c-5.99,8.19-14.29,15.27-23.61,19.53c-4.27,1.96-8.75,3.32-13.33,3.93l-0.91,0.03c-5.29-6.69-9-14.83-11.63-23.01
						c-4.21-13.08-6.25-26.83-11.18-39.66c-3.88-10.12-9.55-19.56-16.65-27.75c-3.25-3.74-6.94-7.32-11.55-9.14
						c-1.42-0.56-2.89-0.93-4.39-1.19c-2.27-0.4-4.6-0.52-6.9-0.6c-0.5-0.02-1-0.03-1.5-0.04l0.03-1.04
						c1.07-9.73,1.2-19.56,2.33-29.29c1.13-9.73,3.34-19.51,8.24-27.99c4.9-8.48,12.78-15.58,22.3-17.89
						c3.71-0.9,7.53-1.05,11.34-0.85c0.01,0,0.01,0,0.01,0c2.89,0.15,5.78,0.51,8.64,0.91c10.27,1.42,20.47,3.31,30.57,5.67
						c0.02,0.03,0.04,0.07,0.07,0.11c0.05-0.01,0.1-0.03,0.14-0.06c4.04,0.95,8.07,1.98,12.07,3.08
						c23.32,17.16,47.35,36.89,66.96,58.19c1.77,1.92,3.56,3.92,4.47,6.37C299.61,279.548,297.02,285.578,292.56,288.648z"/>
				</defs>
				<clipPath id="SVGID_00000179622845182339440990000017643315731717152136_">
					<use xlink:href="#SVGID_00000028309593464587635430000017178008749255337876_"  style="overflow:visible;"/>
				</clipPath>
				<g style="clip-path:url(#SVGID_00000179622845182339440990000017643315731717152136_);">
					<rect x="121.018" y="220.849" style="fill:#B9EFE8;" width="175.525" height="6"/>
				</g>
				<g style="clip-path:url(#SVGID_00000179622845182339440990000017643315731717152136_);">
					<rect x="121.018" y="238.133" style="fill:#B9EFE8;" width="175.525" height="6"/>
				</g>
				<g style="clip-path:url(#SVGID_00000179622845182339440990000017643315731717152136_);">
					<rect x="118.835" y="254.089" style="fill:#B9EFE8;" width="183.336" height="6"/>
				</g>
				<g style="clip-path:url(#SVGID_00000179622845182339440990000017643315731717152136_);">
					<rect x="118.835" y="271.372" style="fill:#B9EFE8;" width="183.336" height="6"/>
				</g>
				<g style="clip-path:url(#SVGID_00000179622845182339440990000017643315731717152136_);">
					<rect x="112.435" y="288.484" style="fill:#B9EFE8;" width="195.514" height="6"/>
				</g>
				<g style="clip-path:url(#SVGID_00000179622845182339440990000017643315731717152136_);">
					<rect x="112.435" y="305.767" style="fill:#B9EFE8;" width="195.514" height="6"/>
				</g>
				<g style="clip-path:url(#SVGID_00000179622845182339440990000017643315731717152136_);">
					<rect x="133.114" y="322.879" style="fill:#B9EFE8;" width="175.525" height="6"/>
				</g>
				<g style="clip-path:url(#SVGID_00000179622845182339440990000017643315731717152136_);">
					<rect x="130.932" y="338.835" style="fill:#B9EFE8;" width="183.336" height="6"/>
				</g>
				<g style="clip-path:url(#SVGID_00000179622845182339440990000017643315731717152136_);">
					<rect x="130.932" y="356.118" style="fill:#B9EFE8;" width="183.336" height="6"/>
				</g>
			</g>
		</g>
	</g>
	<g>
		<polygon style="fill:#C6C6C6;" points="208.776,117.877 208.697,118.067 194.158,118.067 194.063,117.877 		"/>
		<path style="fill:#FFDC78;" d="M224.046,82.125c0,7.119-3.139,13.501-8.102,17.837l-7.167,17.916h-14.714l-9.283-17.829
			c-5.026-4.336-8.197-10.758-8.197-17.924c0-13.104,10.623-23.727,23.727-23.727C213.415,58.398,224.046,69.021,224.046,82.125z"/>
		<polygon style="fill:#C6C6C6;" points="213.184,124.568 213.184,127.532 209.823,127.532 194.308,127.532 190.947,127.532 
			190.947,124.568 192.445,124.568 211.686,124.568 		"/>
		<polygon style="fill:#C6C6C6;" points="213.184,117.877 213.184,121.65 211.686,121.65 192.445,121.65 190.947,121.65 
			190.947,117.877 194.063,117.877 194.158,118.067 208.697,118.067 208.776,117.877 		"/>
		<rect x="192.445" y="121.65" style="fill:#A6B2B1;" width="19.24" height="2.917"/>
		<path style="fill:#A6B2B1;" d="M194.308,127.532h15.514c0,0-1.522,5.129-7.753,5.129
			C195.83,132.662,194.308,127.532,194.308,127.532z"/>
		<path style="fill:#E0AD2D;" d="M199.174,117.635c-3.268-10.81-6.535-21.619-9.803-32.429c-0.148-0.488-0.914-0.284-0.766,0.205
			c3.268,10.81,6.535,21.619,9.803,32.429C198.556,118.329,199.322,118.125,199.174,117.635z"/>
		<path style="fill:#E0AD2D;" d="M215.936,90.815c-1.495,1.406-3.353,2.371-5.318,2.815c0.735-3.158,1.478-6.315,2.201-9.476
			c0.113-0.496-0.653-0.699-0.767-0.2c-0.75,3.28-1.521,6.556-2.284,9.833c-2.03,0.297-4.135,0.041-6.051-0.884
			c-1.353-0.653-2.579-1.63-3.574-2.81c0.039-0.033,0.08-0.062,0.118-0.096c2.699-2.35,5.998-7.683,2.315-10.653
			c-3.254-2.623-5.9,1.206-5.787,4.34c0.081,2.251,0.913,4.452,2.25,6.283c-3.511,2.639-8.123,3.198-12.314,1.677
			c-0.479-0.174-0.677,0.594-0.2,0.767c4.413,1.601,9.271,0.995,13.002-1.819c0.986,1.181,2.191,2.174,3.542,2.875
			c2.045,1.062,4.311,1.402,6.509,1.137c-1.796,7.704-3.615,15.402-5.482,23.089c-0.12,0.495,0.647,0.697,0.767,0.2
			c1.894-7.797,3.738-15.607,5.559-23.421c2.241-0.434,4.372-1.497,6.071-3.095C216.865,91.029,216.307,90.465,215.936,90.815z
			 M197.577,83.158c0.038-1.149,0.378-2.694,1.401-3.357c1.675-1.084,3.753,0.087,4.271,1.915c0.725,2.562-1.155,5.378-2.878,7.1
			c-0.232,0.231-0.47,0.451-0.715,0.66C198.31,87.64,197.504,85.407,197.577,83.158z"/>
	</g>
	<g>
		<polygon style="opacity:0.69;fill:#00C4B7;" points="150.211,151.433 157.897,164.153 141.178,153.001 64.593,153.001 
			64.593,112.822 155.856,112.822 155.856,151.164 		"/>
		<polygon style="opacity:0.69;fill:#00C4B7;" points="120.908,97.872 113.223,110.592 129.942,99.44 166.526,99.44 166.526,59.261 
			115.264,59.261 115.264,97.603 		"/>
	</g>
</g>
<g id="DESIGNED_BY_FREEPIK">
	<g>
		<g id="XMLID_30_">
			<g id="XMLID_49_">
				<path id="XMLID_57_" style="fill:#112129;" d="M260.104,471.331c-0.432,0.443-0.803,0.931-1.108,1.453l-0.465-0.241
					c-0.067-0.298-0.349-0.503-0.659-0.466c-0.331,0.039-0.568,0.339-0.529,0.67c0.039,0.331,0.339,0.568,0.67,0.529
					c0.065-0.008,0.127-0.026,0.184-0.052l0.451,0.234c-0.251,0.554-0.433,1.139-0.539,1.744l0.747,0.132
					c0.23-1.306,0.85-2.507,1.792-3.473L260.104,471.331z"/>
				<path id="XMLID_56_" style="fill:#112129;" d="M265.592,469.029c-0.171,0-0.341,0.006-0.51,0.017l-0.074-0.626
					c0.188-0.149,0.296-0.389,0.266-0.645c-0.046-0.393-0.402-0.674-0.795-0.628c-0.393,0.046-0.674,0.402-0.628,0.795
					c0.03,0.254,0.189,0.461,0.404,0.564l0.074,0.624c-0.714,0.116-1.403,0.332-2.06,0.646l0.327,0.684
					c0.934-0.447,1.942-0.673,2.995-0.673c0.496,0,0.993,0.053,1.475,0.158l0.161-0.741
					C266.692,469.087,266.142,469.029,265.592,469.029z"/>
				<path id="XMLID_55_" style="fill:#112129;" d="M272.194,471.576c0.331-0.04,0.566-0.341,0.525-0.672
					c-0.04-0.331-0.341-0.566-0.672-0.526c-0.309,0.038-0.535,0.304-0.53,0.609l-0.416,0.363c-0.418-0.43-0.889-0.813-1.408-1.139
					l-0.404,0.641c1.134,0.715,2.021,1.726,2.563,2.925l0.691-0.313c-0.251-0.554-0.568-1.072-0.942-1.545l0.402-0.351
					C272.065,471.581,272.129,471.584,272.194,471.576z"/>
				<path id="XMLID_54_" style="fill:#112129;" d="M265.044,479.237c-0.386,0.023-0.775,0.035-1.157,0.035
					c-0.88,0-1.733-0.061-2.478-0.179c-0.39-0.062-0.846-0.155-1.27-0.292c1.046,1.861,3.069,3.125,5.388,3.125
					c2.855,0,5.262-1.916,5.95-4.504c-0.682,0.449-1.505,0.825-2.459,1.123C267.839,478.912,266.463,479.152,265.044,479.237z"/>
				<path id="XMLID_50_" style="fill:#112129;" d="M265.592,470.545c-3.352,0-6.08,2.666-6.08,5.943
					c0,0.426,0.046,0.849,0.137,1.261c0.674,0.483,2.706,0.89,5.348,0.731c2.879-0.173,5.297-0.957,6.672-2.159
					c-0.005-0.195-0.021-0.39-0.045-0.582C271.244,472.778,268.65,470.545,265.592,470.545z M263.432,477.06
					c-1.02,0-1.85-0.83-1.85-1.85c0-1.02,0.83-1.85,1.85-1.85c1.02,0,1.85,0.83,1.85,1.85
					C265.282,476.23,264.452,477.06,263.432,477.06z M268.17,476.151c-0.75,0-1.36-0.61-1.36-1.36c0-0.75,0.61-1.361,1.36-1.361
					c0.75,0,1.361,0.61,1.361,1.361C269.53,475.541,268.92,476.151,268.17,476.151z"/>
			</g>
			<path id="XMLID_47_" style="fill:#112129;" d="M281.595,472.412c-0.295-0.116-0.805-0.309-1.382-0.237
				c-0.551,0.069-0.844,0.341-0.844,1.007v0.866h2.228v1.717h-2.228v5.455h-1.932v-5.455h-1.34v-1.717h1.34v-0.888
				c0-1.68,0.896-2.783,2.568-2.783c0.643,0,1.157,0.122,1.59,0.308L281.595,472.412z"/>
			<path id="XMLID_45_" style="fill:#112129;" d="M286.298,475.744c-0.177-0.03-0.358-0.046-0.526-0.046
				c-0.896,0-1.51,0.548-1.51,1.613v3.908h-1.932v-7.172h1.873v0.785c0.451-0.673,1.14-0.977,2.021-0.977
				c0.414,0,0.848,0.128,1.094,0.337L286.298,475.744z"/>
			<path id="XMLID_42_" style="fill:#112129;" d="M293.965,477.622c0,0.222-0.015,0.489-0.037,0.651h-5.085
				c0.207,1.036,0.933,1.488,1.843,1.488c0.622,0,1.295-0.252,1.813-0.688l1.133,1.243c-0.814,0.748-1.85,1.088-3.057,1.088
				c-2.198,0-3.723-1.495-3.723-3.753c0-2.258,1.48-3.797,3.627-3.797C292.544,473.855,293.958,475.387,293.965,477.622z
				 M288.851,476.956h3.175c-0.177-0.918-0.733-1.436-1.562-1.436C289.554,475.52,289.021,476.068,288.851,476.956z"/>
			<path id="XMLID_39_" style="fill:#112129;" d="M301.618,477.622c0,0.222-0.015,0.489-0.037,0.651h-5.085
				c0.207,1.036,0.932,1.488,1.843,1.488c0.622,0,1.295-0.252,1.814-0.688l1.132,1.243c-0.814,0.748-1.85,1.088-3.057,1.088
				c-2.198,0-3.723-1.495-3.723-3.753c0-2.258,1.48-3.797,3.627-3.797C300.197,473.855,301.611,475.387,301.618,477.622z
				 M296.504,476.956h3.175c-0.178-0.918-0.733-1.436-1.562-1.436C297.207,475.52,296.674,476.068,296.504,476.956z"/>
			<path id="XMLID_36_" style="fill:#112129;" d="M309.964,477.629c0,2.154-1.495,3.775-3.471,3.775
				c-0.962,0-1.643-0.378-2.109-0.933v3.708h-1.924v-10.133h1.887v0.792c0.466-0.585,1.155-0.984,2.139-0.984
				C308.469,473.855,309.964,475.476,309.964,477.629z M304.287,477.629c0,1.132,0.747,1.976,1.843,1.976
				c1.14,0,1.85-0.881,1.85-1.976c0-1.095-0.71-1.976-1.85-1.976C305.035,475.653,304.287,476.497,304.287,477.629z"/>
			<path id="XMLID_33_" style="fill:#112129;" d="M313.068,471.701c0,0.696-0.54,1.229-1.236,1.229
				c-0.696,0-1.229-0.533-1.229-1.229c0-0.696,0.533-1.243,1.229-1.243C312.527,470.457,313.068,471.005,313.068,471.701z
				 M312.809,481.219h-1.932v-7.172h1.932V481.219z"/>
			<path id="XMLID_31_" style="fill:#112129;" d="M316.032,476.601l2.702-2.554h2.368l-3.479,3.375l3.501,3.797h-2.376l-2.716-2.901
				v2.901H314.1v-10.658h1.932V476.601z"/>
		</g>
		<g>
			<path style="fill:#112129;" d="M184.412,481.154v-1.055c-0.527,0.718-1.391,1.23-2.387,1.23c-1.846,0-3.149-1.406-3.149-3.706
				c0-2.256,1.289-3.721,3.149-3.721c0.952,0,1.816,0.469,2.387,1.245v-3.765h1.099v9.77H184.412z M184.412,479.235v-3.208
				c-0.395-0.615-1.245-1.143-2.124-1.143c-1.421,0-2.27,1.172-2.27,2.739c0,1.567,0.85,2.724,2.27,2.724
				C183.168,480.349,184.017,479.851,184.412,479.235z"/>
			<path style="fill:#112129;" d="M186.932,477.609c0-2.051,1.465-3.706,3.486-3.706c2.139,0,3.398,1.67,3.398,3.794v0.279h-5.727
				c0.088,1.333,1.025,2.446,2.549,2.446c0.805,0,1.626-0.322,2.182-0.894l0.527,0.718c-0.703,0.703-1.655,1.084-2.812,1.084
				C188.441,481.33,186.932,479.821,186.932,477.609z M190.404,474.812c-1.509,0-2.256,1.274-2.314,2.358h4.643
				C192.718,476.115,192.015,474.812,190.404,474.812z"/>
			<path style="fill:#112129;" d="M194.607,480.217l0.571-0.791c0.469,0.542,1.362,1.011,2.329,1.011c1.084,0,1.67-0.513,1.67-1.216
				c0-1.714-4.38-0.659-4.38-3.281c0-1.098,0.952-2.036,2.636-2.036c1.201,0,2.051,0.454,2.622,1.025l-0.513,0.762
				c-0.424-0.513-1.201-0.894-2.109-0.894c-0.967,0-1.567,0.483-1.567,1.113c0,1.552,4.38,0.527,4.38,3.281
				c0,1.187-0.952,2.138-2.783,2.138C196.306,481.33,195.325,480.978,194.607,480.217z"/>
			<path style="fill:#112129;" d="M201.477,472.336c0-0.41,0.337-0.747,0.732-0.747c0.41,0,0.747,0.337,0.747,0.747
				c0,0.41-0.337,0.732-0.747,0.732C201.814,473.068,201.477,472.746,201.477,472.336z M201.667,481.154v-7.075h1.099v7.075H201.667
				z"/>
			<path style="fill:#112129;" d="M204.582,482.97l0.556-0.82c0.586,0.703,1.289,0.967,2.3,0.967c1.172,0,2.27-0.571,2.27-2.124
				v-1.011c-0.513,0.718-1.377,1.26-2.373,1.26c-1.845,0-3.149-1.377-3.149-3.662c0-2.27,1.289-3.676,3.149-3.676
				c0.952,0,1.802,0.469,2.373,1.245v-1.069h1.099v6.87c0,2.344-1.641,3.076-3.369,3.076
				C206.237,484.025,205.417,483.791,204.582,482.97z M209.709,479.118v-3.091c-0.381-0.615-1.23-1.143-2.109-1.143
				c-1.421,0-2.27,1.128-2.27,2.695c0,1.553,0.849,2.695,2.27,2.695C208.478,480.275,209.328,479.733,209.709,479.118z"/>
			<path style="fill:#112129;" d="M217.413,481.154v-4.629c0-1.245-0.63-1.641-1.582-1.641c-0.865,0-1.685,0.527-2.095,1.099v5.17
				h-1.099v-7.075h1.099v1.025c0.498-0.586,1.464-1.201,2.519-1.201c1.48,0,2.256,0.747,2.256,2.285v4.966H217.413z"/>
			<path style="fill:#112129;" d="M219.932,477.609c0-2.051,1.465-3.706,3.486-3.706c2.138,0,3.398,1.67,3.398,3.794v0.279h-5.727
				c0.088,1.333,1.025,2.446,2.549,2.446c0.806,0,1.626-0.322,2.183-0.894l0.527,0.718c-0.703,0.703-1.655,1.084-2.812,1.084
				C221.441,481.33,219.932,479.821,219.932,477.609z M223.404,474.812c-1.509,0-2.256,1.274-2.314,2.358h4.643
				C225.718,476.115,225.015,474.812,223.404,474.812z"/>
			<path style="fill:#112129;" d="M233.35,481.154v-1.055c-0.527,0.718-1.392,1.23-2.388,1.23c-1.845,0-3.149-1.406-3.149-3.706
				c0-2.256,1.289-3.721,3.149-3.721c0.952,0,1.817,0.469,2.388,1.245v-3.765h1.098v9.77H233.35z M233.35,479.235v-3.208
				c-0.396-0.615-1.245-1.143-2.124-1.143c-1.421,0-2.27,1.172-2.27,2.739c0,1.567,0.849,2.724,2.27,2.724
				C232.105,480.349,232.954,479.851,233.35,479.235z"/>
			<path style="fill:#112129;" d="M239.692,481.154v-9.77h1.098v3.765c0.572-0.776,1.421-1.245,2.388-1.245
				c1.845,0,3.149,1.465,3.149,3.721c0,2.299-1.304,3.706-3.149,3.706c-0.996,0-1.86-0.513-2.388-1.23v1.055H239.692z
				 M242.9,480.349c1.436,0,2.286-1.157,2.286-2.724c0-1.568-0.85-2.739-2.286-2.739c-0.864,0-1.728,0.527-2.109,1.143v3.208
				C241.171,479.851,242.036,480.349,242.9,480.349z"/>
			<path style="fill:#112129;" d="M247.529,482.927c0.161,0.073,0.425,0.117,0.601,0.117c0.483,0,0.806-0.161,1.055-0.747
				l0.469-1.069l-2.959-7.148h1.187l2.358,5.8l2.344-5.8h1.201l-3.545,8.51c-0.425,1.025-1.143,1.421-2.08,1.435
				c-0.234,0-0.601-0.044-0.805-0.103L247.529,482.927z"/>
		</g>
	</g>
</g>
</svg>
