<svg xmlns="http://www.w3.org/2000/svg" xmlns:xlink="http://www.w3.org/1999/xlink" viewBox="0,0,256,256" width="40px" height="40px" fill-rule="nonzero"><g fill="none" fill-rule="nonzero" stroke="none" stroke-width="1" stroke-linecap="butt" stroke-linejoin="miter" stroke-miterlimit="10" stroke-dasharray="" stroke-dashoffset="0" font-family="none" font-weight="none" font-size="none" text-anchor="none" style="mix-blend-mode: normal"><g transform="scale(6.4,6.4)"><path d="M14.5,29.833v-1.833c0,-1.914 -1.168,-3.76 -2.52,-5.897c-1.631,-2.578 -3.48,-5.5 -3.48,-9.103c0,-6.341 5.159,-11.5 11.5,-11.5c6.341,0 11.5,5.159 11.5,11.5c0,3.603 -1.849,6.525 -3.48,9.103c-1.352,2.137 -2.52,3.983 -2.52,5.897v1.833z" fill="#040416"></path><path d="M20,2c6.065,0 11,4.935 11,11c0,3.458 -1.808,6.315 -3.402,8.835c-1.336,2.112 -2.598,4.106 -2.598,6.165v1.333h-5h-5v-1.333c0,-2.059 -1.262,-4.053 -2.598,-6.165c-1.594,-2.52 -3.402,-5.377 -3.402,-8.835c0,-6.065 4.935,-11 11,-11M20,1c-6.627,0 -12,5.373 -12,12c0,6.667 6,10.958 6,15v2.333h6h6v-2.333c0,-4.042 6,-8.333 6,-15c0,-6.627 -5.373,-12 -12,-12z" fill="#1589ff"></path><path d="M22.714,11.335c0.502,0 0.974,0.195 1.329,0.55c0.733,0.733 0.733,1.925 0,2.657l-1.75,1.75l-0.293,0.294v0.414v12h-4v-12v-0.414l-0.293,-0.293l-1.75,-1.75c-0.733,-0.733 -0.733,-1.925 0,-2.657c0.355,-0.355 0.827,-0.55 1.329,-0.55c0.502,0 0.974,0.195 1.329,0.55l0.679,0.679l0.706,0.706l0.707,-0.707l0.679,-0.679c0.355,-0.354 0.826,-0.55 1.328,-0.55M22.714,10.335c-0.737,0 -1.474,0.281 -2.036,0.843l-0.678,0.679l-0.679,-0.679c-0.562,-0.562 -1.299,-0.843 -2.036,-0.843c-0.737,0 -1.474,0.281 -2.036,0.843c-1.124,1.124 -1.124,2.947 0,4.071l1.751,1.751v13h6v-13l1.75,-1.75c1.124,-1.124 1.124,-2.947 0,-4.071c-0.562,-0.563 -1.299,-0.844 -2.036,-0.844z" fill-opacity="0" fill="#ffffff"></path><path d="M20,31c-2.20914,0 -4,1.79086 -4,4c0,2.20914 1.79086,4 4,4c2.20914,0 4,-1.79086 4,-4c0,-2.20914 -1.79086,-4 -4,-4z" fill="#5d696c"></path><path d="M17,36.5c-1.378,0 -2.5,-1.122 -2.5,-2.5v-5.5h11v5.5c0,1.378 -1.122,2.5 -2.5,2.5z" fill="#dcd5f2"></path><path d="M25,29v5c0,1.103 -0.897,2 -2,2h-6c-1.103,0 -2,-0.897 -2,-2v-5h10M26,28h-12v6c0,1.657 1.343,3 3,3h6c1.657,0 3,-1.343 3,-3v-6z" fill="#5d696c"></path><path d="M19,34h6.488v1h-6.488zM14.56,34h2.44v1h-2.44zM19,32h7v1h-7zM14,32h3v1h-3zM19,30h7v1h-7zM14,30h3v1h-3z" fill="#5d696c"></path></g></g></svg>